<?xml version="1.0" encoding="UTF-8"?> <svg xmlns="http://www.w3.org/2000/svg" width="61" height="61" viewBox="0 0 61 61" fill="none"> <g clip-path="url(#clip0)"> <path d="M60.1059 50.5482C60.1055 50.5482 60.1052 50.5482 60.1048 50.5482L56.6853 50.5521L56.6816 47.6679C56.681 47.1744 56.2808 46.7747 55.7874 46.7747C55.7871 46.7747 55.7867 46.7747 55.7863 46.7747C55.2924 46.7753 54.8926 47.1762 54.8932 47.67L54.8969 50.5542L41.519 50.5697L41.5058 39.1105L50.7644 39.0998C51.2369 39.0993 51.6808 38.9149 52.0144 38.5806C52.348 38.2462 52.5314 37.8019 52.5308 37.3295L52.5201 27.9868C52.5195 27.5144 52.335 27.0704 52.0007 26.7369C51.6669 26.4039 51.2234 26.2205 50.7518 26.2205C50.751 26.2205 50.7503 26.2205 50.7495 26.2205L41.4907 26.2311L41.4864 22.5331L54.8643 22.5179L54.8883 43.616C54.8889 44.1096 55.289 44.5092 55.7825 44.5092H55.7836C56.2776 44.5086 56.6775 44.1079 56.6769 43.6141L56.6529 22.5158L58.413 22.5138C59.7717 22.5119 60.8755 21.4052 60.8737 20.0472L60.8714 17.7017C60.8696 16.3433 59.7642 15.2396 58.407 15.2396C58.4059 15.2396 58.4046 15.2396 58.4037 15.2396L52.6759 15.2456C52.182 15.2461 51.782 15.6469 51.7826 16.1408C51.7831 16.6344 52.1833 17.034 52.6768 17.034H52.6778L58.4058 17.0281H58.4066C58.7791 17.0281 59.0824 17.3311 59.0829 17.7038L59.0853 20.0493C59.0858 20.4216 58.7831 20.7249 58.4107 20.7254L41.4844 20.7446L41.4801 17.0473L48.624 17.0388C49.1178 17.0382 49.5177 16.6373 49.5171 16.1435C49.5165 15.65 49.1163 15.2503 48.6229 15.2503C48.6226 15.2503 48.6222 15.2503 48.6218 15.2503L41.4781 15.2588L41.4732 11.06C41.4725 10.4007 41.215 9.78106 40.7482 9.31546C40.2821 8.85047 39.6631 8.5946 39.0048 8.5946C39.0039 8.5946 39.0028 8.5946 39.0019 8.5946L21.8984 8.6144C21.239 8.61511 20.6194 8.87265 20.1538 9.33943C19.6882 9.80621 19.4321 10.4263 19.433 11.0857L19.4378 15.2846L2.51121 15.3042C1.85294 15.305 1.23438 15.5623 0.769507 16.0287C0.304989 16.4947 0.0496001 17.1139 0.0504347 17.7719L0.0530577 20.1178C0.0537731 20.7759 0.310832 21.3944 0.776541 21.859C1.24166 22.323 1.8595 22.5784 2.51646 22.5784H2.51956L4.28975 22.5764V25.2538C4.28975 25.7477 4.69013 26.148 5.18397 26.148C5.67782 26.148 6.07819 25.7477 6.07819 25.2538V22.5742L19.4461 22.5587L19.4504 26.2565L10.1922 26.2673C9.7197 26.2677 9.27581 26.4522 8.9422 26.7865C8.6086 27.1208 8.42522 27.5652 8.42582 28.0377L8.43655 37.3804C8.43715 37.8528 8.62159 38.2968 8.95591 38.6303C9.28976 38.9633 9.73317 39.1467 10.2048 39.1467H10.2071L19.4654 39.136L19.4786 50.5952L6.07831 50.6107V29.3077C6.07831 28.8139 5.67794 28.4135 5.18409 28.4135C4.69024 28.4135 4.28987 28.8139 4.28987 29.3077V50.6128L0.893267 50.6168C0.3993 50.6174 -0.000595481 51.0182 6.65667e-07 51.5121C0.000596812 52.0055 0.400731 52.4052 0.894221 52.4052H0.895294L60.1069 52.3366C60.6007 52.336 61.0006 51.9352 61 51.4413C60.9994 50.948 60.5993 50.5482 60.1059 50.5482ZM50.7315 28.009L50.7422 37.3115L41.5036 37.3222L41.4929 28.0197L50.7315 28.009ZM2.51753 20.7901C2.51729 20.7901 2.51705 20.7901 2.51669 20.7901C2.33654 20.7901 2.16723 20.7201 2.03978 20.593C1.9122 20.4657 1.84174 20.2963 1.8415 20.1157L1.83888 17.7699C1.83864 17.5891 1.90874 17.4192 2.03632 17.2912C2.16366 17.1634 2.33308 17.0929 2.51336 17.0927L19.4399 17.0731L19.4442 20.7705L2.51753 20.7901ZM10.2251 37.3585L10.2144 28.0559L19.4525 28.0452L19.4632 37.3477L10.2251 37.3585ZM21.2213 11.0836C21.221 10.9021 21.2916 10.7312 21.4199 10.6027C21.5482 10.4741 21.7188 10.4032 21.9004 10.403L39.004 10.3832H39.0048C39.3793 10.3832 39.6843 10.6877 39.6848 11.0623L39.7304 50.5719L37.4956 50.5746L37.4774 34.8049C37.4765 34.051 37.187 33.3419 36.6624 32.8079C36.1338 32.2701 35.4303 31.9741 34.6811 31.9741C34.68 31.9741 34.6788 31.9741 34.6777 31.9741L26.277 31.9838C25.5265 31.9847 24.8224 32.2825 24.2943 32.8224C23.7709 33.3575 23.4831 34.0672 23.484 34.8213L23.5023 50.5909L21.2669 50.5935L21.2213 11.0836ZM25.2724 34.8189C25.2721 34.5361 25.3788 34.271 25.5728 34.0727C25.7621 33.8791 26.013 33.7723 26.2791 33.772L34.6799 33.7623H34.6811C34.9467 33.7623 35.1973 33.8685 35.3868 34.0613C35.5813 34.2592 35.6886 34.5239 35.6889 34.8067L35.7072 50.5763L25.2907 50.5884L25.2724 34.8189Z" fill="#C6A473"></path> <path d="M24.6817 23.8648H24.6839L27.6656 23.8614L27.669 26.843C27.6701 27.7629 28.4188 28.5105 29.3382 28.5105H29.3404L31.6062 28.5078C32.0521 28.5074 32.4712 28.3333 32.7861 28.0176C33.1011 27.702 33.2742 27.2824 33.2736 26.8365L33.2702 23.8548L36.2517 23.8513C37.1722 23.8504 37.9202 23.1007 37.9193 22.18L37.9167 19.914C37.9162 19.4681 37.742 19.0491 37.4263 18.7341C37.111 18.4196 36.6925 18.2466 36.2473 18.2466C36.2467 18.2466 36.2459 18.2466 36.2452 18.2466L33.2635 18.2501L33.26 15.2685C33.2596 14.8226 33.0855 14.4036 32.7698 14.0886C32.4545 13.7741 32.0359 13.601 31.5908 13.601C31.5902 13.601 31.5894 13.601 31.5887 13.601L29.3227 13.6036C28.8768 13.6041 28.4578 13.7782 28.1428 14.094C27.8279 14.4096 27.6548 14.8291 27.6553 15.2749L27.6588 18.2566L24.6772 18.2601C24.2313 18.2606 23.8122 18.4346 23.4973 18.7503C23.1823 19.0661 23.0092 19.4855 23.0098 19.9314L23.0124 22.1973C23.0129 22.6432 23.1869 23.0623 23.5027 23.3772C23.818 23.6918 24.2366 23.8648 24.6817 23.8648ZM28.5554 20.0441C29.0492 20.0435 29.4491 19.6427 29.4485 19.1488L29.4441 15.392L31.4718 15.3896L31.4762 19.1465C31.4762 19.1774 31.4779 19.2078 31.481 19.2379C31.5273 19.6884 31.9079 20.0397 32.3705 20.0397H32.3715L36.1283 20.0353L36.1307 22.063L32.3738 22.0674C31.88 22.068 31.4801 22.4689 31.4807 22.9627L31.4851 26.7195L29.4572 26.7219L29.4528 22.965C29.4522 22.4715 29.0521 22.0718 28.5586 22.0718C28.5583 22.0718 28.5579 22.0718 28.5575 22.0718L24.8007 22.0763L24.7983 20.0485L28.5554 20.0441Z" fill="#C6A473"></path> </g> <defs> <clipPath id="clip0"> <rect width="61" height="61" fill="white"></rect> </clipPath> </defs> </svg> 