<?xml version="1.0" encoding="UTF-8"?> <svg xmlns="http://www.w3.org/2000/svg" width="62" height="62" viewBox="0 0 62 62" fill="none"> <g clip-path="url(#clip0)"> <path d="M59.9716 32.7212V17.3519C59.9716 10.0661 54.0441 4.13855 46.7582 4.13855C40.6722 4.13855 35.5352 8.27463 34.0077 13.8832C31.7526 13.5497 29.4096 13.5946 27.1765 14.02C26.6881 14.113 26.3676 14.5843 26.4606 15.0728C26.5514 15.5642 27.0368 15.8832 27.5133 15.7887C29.5193 15.4068 31.6251 15.3615 33.6539 15.6514C33.5821 16.2083 33.5448 16.7759 33.5448 17.3521V22.9887C33.4578 22.985 28.7169 22.9821 28.7169 22.9821C25.7663 22.9821 23.299 25.0887 22.7387 27.8768C22.2987 27.688 21.8481 27.5243 21.3898 27.3862V26.1339C22.2728 25.1441 22.9256 23.9633 23.2908 22.6678C24.1725 22.2228 25.0654 21.2489 25.594 20.1266C26.3355 18.5996 26.0923 17.0527 24.5738 16.3253C24.2575 16.1764 23.9372 16.0918 23.6224 16.0712V12.2575C23.6224 8.89511 20.8869 6.1596 17.5244 6.1596H12.9586C9.5962 6.1596 6.86069 8.89511 6.86069 12.2575V16.0712C6.54572 16.0917 6.22543 16.1762 5.90913 16.3253C4.3905 17.0532 4.14758 18.5991 4.88892 20.1266C5.41737 21.2487 6.31007 22.2226 7.19212 22.6677C7.55746 23.9634 8.21028 25.1442 9.09329 26.134V27.3864C3.71673 29.0012 0 33.9677 0 39.6242C0 40.3389 0.581492 40.9204 1.29619 40.9204H11.899C13.1105 44.2561 15.1684 47.2061 17.8891 49.5045C16.535 51.547 15.7583 53.9847 15.7583 56.5648C15.7583 57.2794 16.3398 57.8608 17.0545 57.8608H44.9455C45.6602 57.8608 46.2417 57.2793 46.2417 56.5646C46.2417 50.9086 42.5247 45.9417 37.1482 44.3269V42.9561C37.6939 42.3445 38.1523 41.6603 38.5082 40.9203H48.1763C47.4872 42.6271 46.5478 44.2167 45.3744 45.6592C45.0608 46.0449 45.119 46.6118 45.5047 46.9257C45.6716 47.0614 45.8726 47.1276 46.0722 47.1276C46.3339 47.1276 46.5932 47.0141 46.7711 46.7954C48.2118 45.0245 49.33 43.0504 50.1029 40.9204H60.7036C61.4183 40.9204 61.9998 40.3389 61.9998 39.6242C62 37.1115 61.2628 34.7317 59.9716 32.7212ZM35.3455 17.3519C35.3455 11.0589 40.4652 5.93909 46.7583 5.93909C53.0514 5.93909 58.1711 11.0588 58.1711 17.3519V30.5072C56.7255 29.0847 54.9342 27.9967 52.9066 27.3873V25.6717C54.3294 24.0746 55.1392 21.996 55.1392 19.8028V15.5274C55.1392 13.5049 53.4936 11.8594 51.471 11.8594H42.0026C39.9799 11.8594 38.3344 13.5049 38.3344 15.5274V19.8028C38.3344 22.0183 39.1605 24.117 40.6102 25.7204V27.3854C40.1521 27.5233 39.7014 27.6877 39.2611 27.8766C38.8383 25.7724 37.3291 24.057 35.3456 23.3418V17.3519H35.3455ZM50.2311 25.6354L48.051 27.1008C47.2527 27.6375 46.2209 27.6375 45.4224 27.1008L43.2422 25.6354C41.2965 24.3275 40.1348 22.1472 40.1348 19.8028V15.5274C40.1348 14.4976 40.9727 13.6598 42.0026 13.6598H51.471C52.5008 13.6598 53.3388 14.4975 53.3388 15.5274V19.8028C53.3386 22.1471 52.177 24.3275 50.2311 25.6354ZM42.4107 27.2458L44.418 28.5951C45.1223 29.0685 45.9295 29.3051 46.7366 29.3051C47.5437 29.3051 48.351 29.0685 49.0552 28.5951L51.1059 27.2167V28.6348C51.1059 31.0321 49.1556 32.9825 46.7582 32.9825C44.3609 32.9825 42.4105 31.0321 42.4105 28.6348V27.2458H42.4107ZM38.1184 37.9342C37.751 38.0598 37.4765 38.3622 37.3838 38.7439C36.971 40.4515 35.9407 41.9317 34.483 42.9114L32.309 44.3726C31.5139 44.9069 30.4862 44.9069 29.6909 44.3726L27.517 42.9114C26.0594 41.9317 25.0292 40.4517 24.6161 38.7433C24.5235 38.3619 24.2488 38.0596 23.8817 37.9344C23.4247 37.7781 22.6851 37.0863 22.2762 36.1816C21.7815 35.0874 22.619 34.5022 23.0364 34.7722C23.3125 34.9509 23.6651 34.9598 23.9527 34.8015C24.2407 34.6434 24.4196 34.341 24.4196 34.0125V31.7445C24.4196 30.5863 25.362 29.6439 26.5203 29.6439H35.4796C36.6379 29.6439 37.5802 30.5863 37.5802 31.7445V34.0124C37.5802 34.3408 37.7591 34.6433 38.0472 34.8014C38.335 34.9597 38.6863 34.9484 38.9635 34.7721C39.5101 34.5426 40.3685 34.8734 39.7237 36.1815C39.3007 37.0798 38.5753 37.778 38.1184 37.9342ZM26.6524 44.4996L28.6866 45.867C29.3892 46.3392 30.1947 46.5754 31 46.5754C31.8054 46.5754 32.6109 46.3392 33.3135 45.867L35.3477 44.4997V45.5754C35.3477 47.9727 33.3974 49.923 31.0001 49.923C28.6028 49.923 26.6524 47.9727 26.6524 45.5754V44.4996ZM28.717 24.7826H33.2829C35.4309 24.7826 37.2159 26.3669 37.5308 28.4283C36.9344 28.0581 36.2317 27.8435 35.4796 27.8435H26.5203C25.7681 27.8435 25.0654 28.058 24.4691 28.4283C24.784 26.3668 26.5691 24.7826 28.717 24.7826ZM10.8941 27.6776L12.9283 29.0449C13.631 29.5173 14.4363 29.7534 15.2417 29.7534C16.047 29.7533 16.8526 29.5171 17.5551 29.0449L19.5895 27.6775V28.7533C19.5895 31.1506 17.639 33.1009 15.2417 33.1009C12.8444 33.1009 10.8941 31.1506 10.8941 28.7533V27.6776ZM12.9588 7.96027H17.5247C19.6728 7.96027 21.4577 9.54454 21.7727 11.6059C21.1763 11.2356 20.4734 11.0212 19.7213 11.0212H10.7621C10.01 11.0212 9.30727 11.2356 8.71088 11.6059C9.02584 9.54454 10.8109 7.96027 12.9588 7.96027ZM8.12382 21.1123C7.66669 20.9561 6.94109 20.2576 6.51811 19.3595C6.31371 18.9254 6.23948 18.5565 6.30898 18.3203C6.28355 18.0724 6.86093 17.5773 7.27822 17.95C7.52331 18.169 7.90669 18.1374 8.19466 17.9794C8.4825 17.8213 8.66159 17.5189 8.66159 17.1903V14.9223C8.66159 13.764 9.60395 12.8217 10.7622 12.8217H19.7214C20.8797 12.8217 21.8221 13.764 21.8221 14.9223V17.1903C21.8221 17.5188 22.001 17.8213 22.289 17.9794C22.577 18.1374 22.978 18.1872 23.2054 17.95C23.5197 17.6222 24.0951 17.9598 24.1747 18.3203C24.2277 18.5607 24.1699 18.9254 23.9655 19.3595C23.5426 20.2577 22.817 20.956 22.3607 21.112C21.9928 21.2375 21.7182 21.5401 21.6256 21.9218C21.2128 23.6294 20.1826 25.1094 18.7248 26.0893L16.5508 27.5505C15.7557 28.0848 14.7281 28.0851 13.9328 27.5505L11.7589 26.0893C10.3012 25.1094 9.27094 23.6293 8.85789 21.9215C8.76561 21.5402 8.49109 21.2377 8.12382 21.1123ZM9.11703 29.271C9.38101 32.4194 12.0262 34.9014 15.2417 34.9014C18.4572 34.9014 21.1023 32.4198 21.3665 29.2716C21.7946 29.423 22.2131 29.602 22.6191 29.8057V32.8936C22.3041 32.9141 21.9837 32.9986 21.6675 33.1476C20.5555 33.6714 19.7036 34.945 20.6473 36.949C21.0589 37.823 21.6918 38.6057 22.3682 39.1201H1.81205C2.01609 34.6451 4.92331 30.7502 9.11703 29.271ZM13.8268 40.9204H23.4919C23.8478 41.6604 24.3061 42.3445 24.8518 42.9561V44.3275C22.5334 45.0242 20.5236 46.3453 18.9871 48.0768C16.7061 46.1323 14.9428 43.6826 13.8268 40.9204ZM44.4298 56.0604H17.5703C17.7749 51.5868 20.6875 47.6858 24.8843 46.2085C25.2023 49.3022 27.8236 51.7235 31 51.7235C34.1764 51.7235 36.798 49.302 37.1157 46.208C41.3143 47.6849 44.2256 51.5827 44.4298 56.0604ZM39.6319 39.1199C40.3082 38.6056 40.9411 37.8227 41.3527 36.9487C42.2965 34.9448 41.4445 33.6711 40.3325 33.1474C40.016 32.9985 39.6959 32.9139 39.3809 32.8933V29.8053C39.7898 29.6003 40.2116 29.4206 40.6428 29.2685C40.9611 32.362 43.5824 34.783 46.7584 34.783C49.9347 34.783 52.5559 32.362 52.8741 29.2685C57.0697 30.746 59.9835 34.6493 60.1882 39.1199H39.6319Z" fill="#C6A473"></path> <path d="M12.1579 18.9118C12.736 18.9118 13.2046 18.4432 13.2046 17.8652C13.2046 17.2872 12.736 16.8186 12.1579 16.8186C11.5799 16.8186 11.1113 17.2872 11.1113 17.8652C11.1113 18.4432 11.5799 18.9118 12.1579 18.9118Z" fill="#C6A473"></path> <path d="M18.2283 18.9118C18.8063 18.9118 19.2749 18.4432 19.2749 17.8652C19.2749 17.2872 18.8063 16.8186 18.2283 16.8186C17.6502 16.8186 17.1816 17.2872 17.1816 17.8652C17.1816 18.4432 17.6502 18.9118 18.2283 18.9118Z" fill="#C6A473"></path> <path d="M12.8916 23.0923C13.4543 23.6533 14.3112 23.9751 15.2424 23.9751C16.1737 23.9751 17.0306 23.6533 17.5933 23.0922C17.9453 22.7411 17.9461 22.171 17.5951 21.819C17.244 21.4667 16.6739 21.4661 16.3219 21.8172C16.1566 21.982 15.7747 22.1745 15.2424 22.1745C14.7102 22.1745 14.3281 21.982 14.1628 21.8172C13.8107 21.4662 13.2407 21.467 12.8896 21.8191C12.5386 22.1712 12.5396 22.7412 12.8916 23.0923Z" fill="#C6A473"></path> <path d="M27.9158 35.7341C28.4938 35.7341 28.9624 35.2655 28.9624 34.6875C28.9624 34.1095 28.4938 33.6409 27.9158 33.6409C27.3377 33.6409 26.8691 34.1095 26.8691 34.6875C26.8691 35.2655 27.3377 35.7341 27.9158 35.7341Z" fill="#C6A473"></path> <path d="M33.9861 35.7341C34.5641 35.7341 35.0327 35.2655 35.0327 34.6875C35.0327 34.1095 34.5641 33.6409 33.9861 33.6409C33.408 33.6409 32.9395 34.1095 32.9395 34.6875C32.9395 35.2655 33.408 35.7341 33.9861 35.7341Z" fill="#C6A473"></path> <path d="M32.0797 38.6392C31.9143 38.804 31.5324 38.9965 31.0002 38.9965C30.4679 38.9965 30.0859 38.8041 29.9206 38.6392C29.5686 38.2882 28.9986 38.289 28.6474 38.6411C28.2964 38.9932 28.2974 39.5632 28.6494 39.9143C29.212 40.4752 30.069 40.7969 31.0002 40.7969C31.9314 40.7969 32.7881 40.4752 33.3509 39.9143C33.703 39.5634 33.704 38.9932 33.3528 38.6411C33.0019 38.289 32.4319 38.2879 32.0797 38.6392Z" fill="#C6A473"></path> <path d="M43.6755 18.7934C44.2536 18.7934 44.7221 18.3248 44.7221 17.7468C44.7221 17.1688 44.2536 16.7002 43.6755 16.7002C43.0975 16.7002 42.6289 17.1688 42.6289 17.7468C42.6289 18.3248 43.0975 18.7934 43.6755 18.7934Z" fill="#C6A473"></path> <path d="M49.7439 18.7934C50.3219 18.7934 50.7905 18.3248 50.7905 17.7468C50.7905 17.1688 50.3219 16.7002 49.7439 16.7002C49.1659 16.7002 48.6973 17.1688 48.6973 17.7468C48.6973 18.3248 49.1659 18.7934 49.7439 18.7934Z" fill="#C6A473"></path> <path d="M47.8375 21.6988C47.6722 21.8636 47.2903 22.0562 46.758 22.0562C46.2258 22.0562 45.8437 21.8636 45.6784 21.6987C45.3263 21.3479 44.7563 21.3485 44.4053 21.7006C44.0542 22.0528 44.0552 22.6228 44.4072 22.9738C44.9699 23.5348 45.8268 23.8566 46.758 23.8566C47.6893 23.8566 48.5462 23.5348 49.1089 22.9737C49.4609 22.6226 49.4618 22.0525 49.1107 21.7005C48.7597 21.3482 48.1896 21.3478 47.8375 21.6988Z" fill="#C6A473"></path> </g> <defs> <clipPath id="clip0"> <rect width="62" height="62" fill="white"></rect> </clipPath> </defs> </svg> 