<?xml version="1.0" encoding="UTF-8"?> <svg xmlns="http://www.w3.org/2000/svg" width="61" height="61" viewBox="0 0 61 61" fill="none"> <g clip-path="url(#clip0)"> <path d="M3.60376 48.5771C3.19093 48.3065 2.63688 48.4216 2.36624 48.8345C0.818261 51.1955 0 53.9336 0 56.7527V59.9644C0 60.458 0.400192 60.8582 0.893818 60.8582C1.38744 60.8582 1.78764 60.458 1.78764 59.9644V56.7527C1.78764 54.2828 2.50472 51.8837 3.86118 49.8148C4.13182 49.4019 4.01658 48.8478 3.60376 48.5771Z" fill="#C6A473"></path> <path d="M14.3298 53.1064H6.96745C6.13143 53.1064 5.45117 53.7867 5.45117 54.6227V57.3683C5.45117 58.2043 6.13143 58.8846 6.96745 58.8846H14.3298C15.1658 58.8846 15.846 58.2043 15.846 57.3683V54.6227C15.846 53.7867 15.1658 53.1064 14.3298 53.1064ZM14.0584 57.0969H7.23881V54.8942H14.0584V57.0969Z" fill="#C6A473"></path> <path d="M27.0517 10.5215C25.0664 10.5215 23.4512 12.1367 23.4512 14.122C23.4512 16.1074 25.0664 17.7226 27.0517 17.7226C29.0372 17.7226 30.6524 16.1074 30.6524 14.122C30.6524 12.1367 29.0372 10.5215 27.0517 10.5215ZM27.0517 15.9349C26.0521 15.9349 25.2388 15.1217 25.2388 14.122C25.2388 13.1224 26.0521 12.3091 27.0517 12.3091C28.0514 12.3091 28.8647 13.1224 28.8647 14.122C28.8647 15.1217 28.0514 15.9349 27.0517 15.9349Z" fill="#C6A473"></path> <path d="M53.7417 32.6655C53.3213 32.4068 52.7708 32.5376 52.512 32.9581C52.2531 33.3784 52.3842 33.929 52.8044 34.1877C56.8168 36.6583 59.2122 40.9419 59.2122 45.6465C59.2122 53.0612 53.1799 59.0935 45.7652 59.0935C38.3504 59.0935 32.3182 53.0611 32.3182 45.6465C32.3182 38.2318 38.3504 32.1995 45.7652 32.1995C47.0415 32.1995 48.3055 32.3787 49.5221 32.732C49.9959 32.8693 50.492 32.597 50.6297 32.1229C50.7673 31.6488 50.4947 31.1529 50.0207 31.0153C48.6421 30.615 47.2102 30.4119 45.7652 30.4119C38.8378 30.4119 32.9763 35.0597 31.1334 41.4006L29.1367 40.5859V36.856C32.0788 34.5263 33.8926 30.9358 33.8926 27.0474V26.5942C36.0382 26.4607 37.7431 24.6738 37.7431 22.4953C37.7431 21.8855 37.6085 21.3067 37.3691 20.7858L37.3697 16.7149C38.2958 16.4811 38.9842 15.6434 38.9842 14.6456V13.5987C38.9842 12.4647 38.0956 11.5371 36.9786 11.4689L36.982 11.269L36.8666 9.15081C36.7197 6.45803 35.0447 4.05629 32.5809 2.98192L32.4519 2.85583C30.941 1.37912 28.8683 0.648216 26.7656 0.850815L25.8142 0.942461L25.2338 0.693979C23.4438 -0.0727978 21.3905 -0.0727978 19.6007 0.693979L19.0203 0.942461L18.069 0.850815C15.9662 0.648216 13.8936 1.37912 12.3828 2.85583L12.2539 2.98192C9.79018 4.05617 8.11504 6.45792 7.96834 9.15081L7.85 11.3179L7.83856 11.5482C6.94903 11.8064 6.29642 12.6271 6.29642 13.5987V14.6456C6.29642 15.4855 6.78468 16.2116 7.49128 16.5604V20.7289C7.23517 21.2643 7.09144 21.8633 7.09144 22.4953C7.09144 24.6739 8.79637 26.4609 10.9419 26.5942V27.0831C10.9419 31.0273 12.8121 34.6731 15.8349 37.0003V40.5859L8.98693 43.38C7.5542 43.9646 6.22992 44.7729 5.05068 45.7829C4.67575 46.104 4.63213 46.6683 4.95331 47.0432C5.13005 47.2496 5.38056 47.3556 5.63261 47.3556C5.83843 47.3556 6.04508 47.2849 6.21359 47.1406C7.24697 46.2556 8.40726 45.5471 9.6623 45.0351L14.7211 42.9711L21.6559 60.3191C21.7917 60.6586 22.1203 60.8811 22.4859 60.8811C22.8514 60.8811 23.1802 60.6585 23.3158 60.3191L30.2505 42.9711L30.7332 43.168C30.6005 43.9749 30.5305 44.8026 30.5305 45.6465C30.5305 54.047 37.3647 60.8811 45.7651 60.8811C54.1655 60.8811 60.9998 54.0468 60.9998 45.6465C60.9999 40.3165 58.2865 35.4639 53.7417 32.6655ZM33.8926 18.3962V16.782H35.582L35.5816 18.8788C35.0732 18.6041 34.5006 18.434 33.8926 18.3962ZM27.0523 19.5103C24.0811 19.5103 21.664 17.0932 21.664 14.1221C21.664 11.1511 24.0811 8.73394 27.0523 8.73394C30.0234 8.73394 32.4405 11.1511 32.4405 14.1221C32.4405 17.0932 30.0234 19.5103 27.0523 19.5103ZM33.8926 24.8003V20.1902C35.0512 20.3188 35.9555 21.303 35.9555 22.4953C35.9555 23.6875 35.0512 24.6717 33.8926 24.8003ZM37.1964 13.5986V14.6455C37.1964 14.8379 37.04 14.9942 36.8477 14.9942H34.1732C34.208 14.7081 34.2281 14.4174 34.2281 14.122C34.2281 13.8266 34.2081 13.5359 34.1732 13.2497H36.8477C37.0401 13.2499 37.1964 13.4063 37.1964 13.5986ZM9.75311 9.24806C9.86574 7.18274 11.1768 5.34565 13.0934 4.56791C13.201 4.52417 13.2991 4.46005 13.382 4.37889L13.6323 4.13423C14.7655 3.02661 16.3195 2.47852 17.8976 2.63023L19.0765 2.7438C19.2253 2.75822 19.3762 2.73486 19.514 2.67575L20.3045 2.33718C21.6472 1.76215 23.1872 1.76215 24.53 2.33718L25.3204 2.67575C25.4582 2.73486 25.6089 2.75822 25.7579 2.7438L26.9368 2.63023C28.5144 2.4784 30.069 3.02661 31.2021 4.13411L31.4524 4.37878C31.5355 4.45993 31.6335 4.52417 31.7412 4.56791C33.6576 5.34565 34.9688 7.18274 35.0813 9.24806L35.1992 11.4107C35.1994 11.4144 35.1985 11.433 35.1965 11.4623H33.7148C32.6557 8.81903 30.0694 6.9463 27.0522 6.9463C24.035 6.9463 21.4485 8.81903 20.3896 11.4623H15.483C14.9893 11.4623 14.5891 11.8625 14.5891 12.3562C14.5891 12.8498 14.9893 13.25 15.483 13.25H19.9312C19.8964 13.5361 19.8763 13.8268 19.8763 14.1222C19.8763 14.4177 19.8963 14.7083 19.9312 14.9945H8.43289C8.24054 14.9945 8.08418 14.838 8.08418 14.6458V13.5988C8.08418 13.4065 8.24065 13.2501 8.43289 13.2501H11.6739C12.1675 13.2501 12.5677 12.8499 12.5677 12.3563C12.5677 11.8627 12.1675 11.4625 11.6739 11.4625H9.63263L9.63513 11.4109L9.75311 9.24806ZM10.942 18.3962C10.3443 18.4334 9.781 18.5987 9.27903 18.8653V16.7819H10.942V18.3962ZM8.8792 22.4952C8.8792 21.3029 9.7835 20.3187 10.942 20.1901V24.8003C9.7835 24.6717 8.8792 23.6875 8.8792 22.4952ZM12.7296 27.083V16.7819H20.3896C21.4487 19.4252 24.035 21.2979 27.0522 21.2979C29.0211 21.2979 30.8071 20.5004 32.1049 19.212V27.0474C32.1049 31.5749 29.238 35.6337 24.971 37.1476L24.8831 37.1788C23.25 37.7581 21.4526 37.7546 19.8219 37.1684C15.5797 35.6437 12.7296 31.5908 12.7296 27.083ZM19.2173 38.8506C20.2326 39.2155 21.2997 39.3979 22.3672 39.3979C23.4217 39.3979 24.4766 39.2197 25.481 38.8634L25.5688 38.8321C26.1886 38.6123 26.7831 38.3463 27.3489 38.0389V40.9749L23.7393 44.0771C23.0008 44.7118 21.8908 44.7074 21.1572 44.0671L17.6225 40.9813V38.1453C18.1328 38.4143 18.6642 38.6518 19.2173 38.8506ZM22.4859 57.5793L16.3763 42.2957L16.3994 42.2863L19.9817 45.4137C20.685 46.0277 21.5695 46.3349 22.4545 46.3349C23.3294 46.3349 24.2047 46.0343 24.9046 45.4328L28.5679 42.2845L28.5954 42.2957L22.4859 57.5793Z" fill="#C6A473"></path> <path d="M46.4904 37.9267C46.1082 38.2042 45.5948 38.2042 45.2126 37.9267C42.9604 36.2909 39.8642 36.3566 37.6833 38.0863C35.0593 40.1676 34.5472 43.9196 36.5173 46.6282L39.1774 50.2852L39.5882 54.178C39.7179 55.4059 40.7467 56.3319 41.9814 56.3319C43.1386 56.3319 44.1332 55.5064 44.3465 54.3691L45.0743 50.488C45.1445 50.1145 45.4712 49.8433 45.8514 49.8433C46.2315 49.8433 46.5583 50.1144 46.6284 50.488L47.3563 54.3691C47.5696 55.5064 48.5643 56.3319 49.7215 56.3319C50.956 56.3319 51.9849 55.4059 52.1145 54.178L52.5253 50.2852L55.1854 46.6281C57.1555 43.9196 56.6433 40.1676 54.0194 38.0863C51.8389 36.3567 48.7427 36.2908 46.4904 37.9267ZM52.9085 39.4869C54.7793 40.9707 55.1444 43.6456 53.7398 45.5766L50.9389 49.4273C50.8466 49.5542 50.7893 49.7032 50.7727 49.8593L50.3367 53.9904C50.3034 54.3061 50.0388 54.5443 49.7215 54.5443C49.4239 54.5443 49.1681 54.332 49.1132 54.0395L48.3854 50.1586C48.1569 48.94 47.0913 48.0556 45.8514 48.0556C44.6117 48.0556 43.546 48.9399 43.3174 50.1585L42.5896 54.0395C42.5347 54.332 42.2791 54.5443 41.9814 54.5443C41.6639 54.5443 41.3993 54.3061 41.3661 53.9904L40.9301 49.8593C40.9136 49.7032 40.8564 49.5542 40.764 49.4273L37.9629 45.5766C36.5583 43.6456 36.9233 40.9707 38.7943 39.4869C40.3489 38.2536 42.5564 38.2069 44.162 39.3731C45.1724 40.1068 46.5302 40.1068 47.5408 39.3731C49.1467 38.2069 51.3537 38.2538 52.9085 39.4869Z" fill="#C6A473"></path> <path d="M44.0731 41.7841L44.0707 41.7827C43.6526 41.5211 43.1007 41.6483 42.8391 42.0669C42.5775 42.4856 42.7048 43.037 43.1234 43.2986C43.1264 43.3006 43.1319 43.304 43.1351 43.3059C43.9468 43.7993 44.8976 44.046 45.8485 44.046C46.8006 44.046 47.7527 43.7987 48.5649 43.3041C48.9865 43.0474 49.1202 42.4974 48.8635 42.0759C48.6067 41.6541 48.0566 41.5206 47.6352 41.7773C46.5674 42.4274 45.1321 42.4277 44.0731 41.7841Z" fill="#C6A473"></path> </g> <defs> <clipPath id="clip0"> <rect width="61" height="61" fill="white"></rect> </clipPath> </defs> </svg> 