<?xml version="1.0" encoding="UTF-8"?> <svg xmlns="http://www.w3.org/2000/svg" width="54" height="54" viewBox="0 0 54 54" fill="none"> <g clip-path="url(#clip0)"> <path d="M14.751 14.6169C15.1699 14.4924 15.4085 14.0521 15.2841 13.6332C15.1597 13.2144 14.7195 12.9758 14.3005 13.1001C12.8691 13.5253 11.5959 14.2991 10.6186 15.3377C7.89779 18.2292 8.38206 22.1204 8.50685 22.871C8.57119 23.2581 8.90641 23.5325 9.28626 23.5325C9.7681 23.5325 10.1471 23.09 10.0677 22.6116C9.96441 21.99 9.56115 18.7703 11.7709 16.422C12.7638 15.3668 13.9395 14.8579 14.751 14.6169ZM32.3243 10.5853C31.3075 11.602 31.2954 13.3063 32.3242 14.3252L34.3775 16.3787C34.9929 16.9938 35.8121 17.3326 36.6841 17.3326C37.5562 17.3326 38.3755 16.9937 38.991 16.3784L44.7786 10.5907C45.8362 9.54189 45.7794 7.7568 44.6867 6.76295C43.6414 5.81202 42.0228 5.86666 41.0016 6.88773L36.6841 11.2052L36.0644 10.5856C35.0498 9.56066 33.3419 9.56783 32.3243 10.5853ZM36.6841 12.9616C36.9945 12.9616 37.2863 12.8407 37.5056 12.6213L42.1203 8.00659C42.5358 7.59099 43.2094 7.55818 43.6218 7.93328C44.0633 8.33485 44.0856 9.05086 43.6598 9.47185L37.8721 15.2596C37.5556 15.5761 37.1337 15.7504 36.684 15.7504C36.2345 15.7504 35.8126 15.5761 35.4961 15.2599L33.443 13.2066C33.0324 12.7999 33.0343 12.1128 33.443 11.7043C33.8521 11.2954 34.5384 11.2932 34.9454 11.7043L35.8626 12.6214C36.082 12.8407 36.3736 12.9616 36.6839 12.9616H36.6841ZM39.2988 0.00130531C38.8619 -0.0233776 38.4869 0.304884 38.4594 0.740949C38.4318 1.17701 38.7628 1.55285 39.1989 1.58048C44.5242 1.91729 48.6957 6.36433 48.6957 11.7044C48.6957 17.4047 44.0334 21.8487 38.5514 21.8487C32.9579 21.8487 28.4072 17.298 28.4072 11.7044C28.4072 7.20112 31.4319 3.18973 35.7628 1.94967C36.1828 1.82942 36.4259 1.39146 36.3056 0.971428C36.1854 0.551502 35.7473 0.307943 35.3273 0.428615C30.8621 1.70706 27.6004 5.53492 26.9472 10.041C26.2755 10.5036 25.5651 11.0255 24.8958 11.3608C23.8029 11.9084 22.8761 11.9579 21.7974 11.5268C20.9937 11.2049 20.3285 10.7284 19.6242 10.2237C18.4668 9.39463 17.2701 8.53727 15.4618 8.40468C13.2975 8.24719 10.8575 8.96363 8.7676 10.3708C5.97463 12.2511 4.16181 15.6759 3.79399 19.7669C3.62564 21.6335 3.7556 23.4054 4.18037 25.0332C4.48163 26.1894 5.00504 27.2607 5.51114 28.2968C5.97432 29.2448 6.41165 30.1403 6.6897 31.0895C7.24264 32.9778 7.1726 34.8533 7.09834 36.8387C7.07102 37.5705 7.04275 38.3273 7.04707 39.0908C7.07081 43.452 7.10034 48.8795 10.5782 52.0153C11.9651 53.2658 14.175 54.575 15.9805 53.7261C17.3137 53.0993 17.5221 51.6993 17.8107 49.7616C17.9603 48.7572 18.1465 47.507 18.5205 46.0318C18.6065 45.6926 18.6929 45.3222 18.7843 44.9302C18.91 44.3918 19.1001 43.6241 18.3226 43.441C17.5609 43.2616 17.3747 44.0084 17.2434 44.5707C17.1537 44.9553 17.069 45.3185 16.9867 45.6431C16.5931 47.1954 16.4004 48.4891 16.2457 49.5287C15.9876 51.2619 15.8505 52.0389 15.3075 52.2943C14.4283 52.707 12.7606 51.8537 11.6379 50.8405C8.67868 48.1724 8.65136 43.1322 8.62931 39.0821C8.62509 38.3526 8.65283 37.6131 8.67952 36.8979C8.75515 34.8735 8.83342 32.7802 8.20823 30.645C7.89231 29.5667 7.40455 28.5682 6.93284 27.6025C6.43918 26.5919 5.97284 25.6374 5.71135 24.634C5.33288 23.1832 5.2179 21.5936 5.3699 19.909C5.69489 16.2945 7.2554 13.2964 9.65133 11.6835C11.4532 10.4704 13.5288 9.85063 15.3467 9.98291C16.7106 10.0829 17.6338 10.7444 18.7029 11.5102C19.4527 12.0473 20.228 12.6027 21.2099 12.9959C22.7107 13.5959 24.1072 13.5258 25.6048 12.7756C26.0299 12.5624 26.4362 12.3093 26.8304 12.0449C27.0113 18.354 32.1996 23.4309 38.5517 23.4309C39.4202 23.4309 40.2666 23.3351 41.0819 23.1551C40.85 24.6991 40.3733 26.1504 39.6808 27.4038C37.8223 30.7695 37.861 33.9034 37.9018 37.2214C37.9092 37.8249 37.917 38.4491 37.9135 39.0861C37.8904 43.1347 37.8617 48.1733 34.9036 50.8406C33.7811 51.8537 32.1133 52.7071 31.2345 52.2943C30.6912 52.0388 30.5542 51.2618 30.2961 49.5285C30.1413 48.489 29.9486 47.1953 29.5552 45.6432C28.8902 43.02 27.8076 37.9547 24.9742 36.4668C24.028 35.97 22.9993 35.9271 21.9167 36.3386C20.4415 36.899 19.3056 38.2274 18.4444 40.3995C18.2834 40.8058 18.482 41.2656 18.8882 41.4265C19.2944 41.5879 19.7542 41.389 19.9153 40.9828C20.6036 39.2468 21.4422 38.2115 22.479 37.8175C23.1285 37.5706 23.7041 37.5868 24.2388 37.8677C26.3813 38.9929 27.4538 43.7923 28.0215 46.0317C28.3955 47.5068 28.5817 48.757 28.7312 49.7614C29.0198 51.6992 29.2283 53.0992 30.5617 53.7261C32.3905 54.586 34.588 53.2558 35.9635 52.0154C39.44 48.8807 39.4709 43.4547 39.4958 39.0907C39.4993 38.4435 39.4915 37.8123 39.484 37.2018C39.4441 33.9643 39.4096 31.1681 41.0659 28.1686C41.9584 26.5535 42.532 24.6576 42.7388 22.6574C47.1431 20.9681 50.2784 16.6957 50.2784 11.7042C50.2779 5.53133 45.4553 0.390852 39.2988 0.00130531ZM9.74911 24.9539C9.31358 24.9878 8.98785 25.3685 9.02171 25.804C9.05726 26.2614 9.13025 26.7189 9.23847 27.1637C9.32645 27.5255 9.65007 27.768 10.0065 27.768C10.5083 27.768 10.8955 27.2814 10.7758 26.7897C10.6876 26.4271 10.6282 26.0543 10.5992 25.6816C10.5652 25.2457 10.1838 24.919 9.74911 24.9539Z" fill="#C6A473"></path> </g> <defs> <clipPath id="clip0"> <rect width="54" height="54" fill="white"></rect> </clipPath> </defs> </svg> 