<?xml version="1.0" encoding="UTF-8"?> <svg xmlns="http://www.w3.org/2000/svg" width="62" height="62" viewBox="0 0 62 62" fill="none"> <g clip-path="url(#clip0)"> <path d="M16.5799 21.273L18.1358 22.2773C18.2867 22.3747 18.4578 22.4224 18.6281 22.4224C18.8489 22.4224 19.0685 22.342 19.2404 22.1852L22.9277 18.8213C23.2983 18.4832 23.3247 17.9087 22.9866 17.5382C22.6485 17.1675 22.0741 17.1414 21.7036 17.4793L18.5331 20.3718L17.565 19.7468C17.1436 19.475 16.5815 19.5959 16.3094 20.0173C16.0373 20.4387 16.1585 21.0009 16.5799 21.273Z" fill="#C6A473"></path> <path d="M26.1758 20.7404H39.0729C39.5746 20.7404 39.9811 20.3338 39.9811 19.8322C39.9811 19.3305 39.5746 18.924 39.0729 18.924H26.1758C25.6742 18.924 25.2676 19.3305 25.2676 19.8322C25.2676 20.3338 25.6742 20.7404 26.1758 20.7404Z" fill="#C6A473"></path> <path d="M26.1758 28.8406H39.0729C39.5746 28.8406 39.9811 28.4341 39.9811 27.9324C39.9811 27.4307 39.5746 27.0242 39.0729 27.0242H26.1758C25.6742 27.0242 25.2676 27.4307 25.2676 27.9324C25.2676 28.4341 25.6742 28.8406 26.1758 28.8406Z" fill="#C6A473"></path> <path d="M26.1758 36.9406H36.71C37.2117 36.9406 37.6182 36.534 37.6182 36.0323C37.6182 35.5307 37.2117 35.1241 36.71 35.1241H26.1758C25.6742 35.1241 25.2676 35.5307 25.2676 36.0323C25.2676 36.534 25.6742 36.9406 26.1758 36.9406Z" fill="#C6A473"></path> <path d="M26.1758 45.0439H30.1389C30.6405 45.0439 31.0471 44.6374 31.0471 44.1357C31.0471 43.6341 30.6405 43.2275 30.1389 43.2275H26.1758C25.6742 43.2275 25.2676 43.6341 25.2676 44.1357C25.2676 44.6374 25.6742 45.0439 26.1758 45.0439Z" fill="#C6A473"></path> <path d="M21.7017 24.953L18.5304 27.8463L17.5619 27.2231C17.14 26.9519 16.578 27.0737 16.3066 27.4956C16.0353 27.9173 16.1572 28.4793 16.5791 28.7507L18.135 29.7518C18.2857 29.8487 18.4563 29.8961 18.6262 29.8961C18.8471 29.8961 19.0666 29.8157 19.2385 29.6589L22.9258 26.2949C23.2964 25.9568 23.3228 25.3824 22.9847 25.0118C22.6467 24.6412 22.0723 24.615 21.7017 24.953Z" fill="#C6A473"></path> <path d="M16.5799 36.2236L18.1358 37.2279C18.2867 37.3253 18.4578 37.373 18.6281 37.373C18.8489 37.373 19.0685 37.2926 19.2404 37.1358L22.9277 33.7719C23.2983 33.4338 23.3247 32.8594 22.9866 32.4888C22.6485 32.1182 22.0741 32.0921 21.7036 32.43L18.5331 35.3224L17.565 34.6974C17.1436 34.4256 16.5815 34.5466 16.3094 34.968C16.0373 35.3894 16.1585 35.9515 16.5799 36.2236Z" fill="#C6A473"></path> <path d="M16.5778 43.697L18.1338 44.7015C18.2847 44.799 18.4558 44.8467 18.6261 44.8467C18.847 44.8467 19.0666 44.7663 19.2385 44.6095L22.9258 41.2455C23.2964 40.9074 23.3228 40.3329 22.9847 39.9624C22.6467 39.5917 22.0721 39.5656 21.7017 39.9035L18.5312 42.7961L17.5631 42.1711C17.1417 41.8988 16.5794 42.0199 16.3074 42.4415C16.0353 42.8628 16.1564 43.4249 16.5778 43.697Z" fill="#C6A473"></path> <path d="M49.661 46.8569H47.6445V44.8405C47.6445 44.1331 47.0691 43.5576 46.3618 43.5576H42.6303C41.9229 43.5576 41.3475 44.1331 41.3475 44.8405V46.8569H39.3311C38.6219 46.8569 38.0449 47.434 38.0449 48.1431V51.8713C38.0449 52.5804 38.6219 53.1574 39.3311 53.1574H41.3475V55.1739C41.3475 55.8813 41.9229 56.4568 42.6303 56.4568H46.3618C47.0691 56.4568 47.6445 55.8813 47.6445 55.1739V53.1574H49.661C50.3701 53.1574 50.9471 52.5804 50.9471 51.8713V48.1431C50.9472 47.434 50.3702 46.8569 49.661 46.8569ZM49.1308 51.341H47.2709C46.4755 51.341 45.8282 51.9867 45.8282 52.7805V54.6404H43.164V52.7805C43.164 51.9867 42.5168 51.341 41.7213 51.341H39.8613V48.6733H41.7212C42.5167 48.6733 43.1639 48.0277 43.1639 47.2339V45.374H45.8281V47.2339C45.8281 48.0277 46.4754 48.6733 47.2708 48.6733H49.1307V51.341H49.1308Z" fill="#C6A473"></path> <path d="M51.5093 40.2841V26.9687C51.5093 26.467 51.1028 26.0605 50.6011 26.0605C50.0994 26.0605 49.6929 26.467 49.6929 26.9687V39.1996C48.7578 38.7483 47.7553 38.4157 46.7052 38.2195V11.1635C46.7052 10.3397 46.0335 9.66958 45.208 9.66958H39.8174V6.68195H48.8102C49.297 6.68195 49.6929 7.07648 49.6929 7.56134V22.808C49.6929 23.3097 50.0994 23.7162 50.6011 23.7162C51.1028 23.7162 51.5093 23.3097 51.5093 22.808V7.56121C51.5093 6.07479 50.2985 4.86543 48.8102 4.86543H39.7215C39.5034 4.26855 38.9326 3.84049 38.2624 3.84049H35.065C34.7293 3.2412 34.3123 2.69082 33.8212 2.19991C32.4027 0.781297 30.5157 0 28.5079 0C26.4985 0 24.6124 0.781539 23.1978 2.19991C22.7046 2.69313 22.2871 3.24241 21.9513 3.84061H18.7567C18.085 3.84061 17.5129 4.26855 17.2944 4.86555H8.20543C6.71901 4.86555 5.50977 6.07479 5.50977 7.56134V55.7123C5.50977 57.1986 6.71901 58.408 8.20543 58.408H35.9461C38.1235 60.6234 41.152 62 44.4965 62C51.1099 62 56.4905 56.6193 56.4905 50.0057C56.4905 46.0096 54.5245 42.4643 51.5093 40.2841ZM19.0146 5.65702H22.3759L22.4063 5.65774C22.8405 5.6684 23.1838 5.45842 23.3654 5.0576L23.3746 5.0375C23.6494 4.46715 24.0221 3.94463 24.4831 3.4835C25.5553 2.40855 26.9845 1.81641 28.5079 1.81641C30.0305 1.81641 31.4615 2.4088 32.5368 3.48435C32.9927 3.94015 33.3642 4.46267 33.6411 5.03738C33.643 5.04137 33.6449 5.04537 33.647 5.04949L33.6597 5.07577C33.8992 5.57419 34.3089 5.66864 34.6113 5.65762L38.0009 5.65702V11.0555H19.0146V5.65702ZM8.20543 56.5915C7.72057 56.5915 7.32617 56.1971 7.32617 55.7122V7.56121C7.32617 7.07636 7.72057 6.68183 8.20543 6.68183H17.1982V9.66958H11.8076C10.9839 9.66958 10.3138 10.3397 10.3138 11.1635V33.7987C10.3138 34.3004 10.7204 34.7069 11.222 34.7069C11.7236 34.7069 12.1302 34.3004 12.1302 33.7987V11.4861H17.2079C17.2928 12.2643 17.9547 12.8719 18.7567 12.8719H38.2625C39.0627 12.8719 39.7232 12.2643 39.8079 11.4861H44.889V38.022C44.7587 38.0177 44.6279 38.0148 44.4966 38.0148C37.8831 38.0148 32.5025 43.3939 32.5025 50.0057C32.5025 50.611 32.5481 51.2058 32.635 51.7873H12.1302V37.9595C12.1302 37.4578 11.7236 37.0513 11.222 37.0513C10.7204 37.0513 10.3138 37.4578 10.3138 37.9595V52.1099C10.3138 52.9336 10.9839 53.6037 11.8076 53.6037H33.054C33.3905 54.6715 33.8729 55.675 34.4773 56.5915H8.20543ZM44.4965 60.1836C38.8845 60.1836 34.3188 55.6179 34.3188 50.0057C34.3188 44.3954 38.8845 39.8312 44.4965 39.8312C50.1085 39.8312 54.6741 44.3954 54.6741 50.0057C54.6741 55.6179 50.1085 60.1836 44.4965 60.1836Z" fill="#C6A473"></path> </g> <defs> <clipPath id="clip0"> <rect width="62" height="62" fill="white"></rect> </clipPath> </defs> </svg> 