<?xml version="1.0" encoding="UTF-8"?> <svg xmlns="http://www.w3.org/2000/svg" width="61" height="61" viewBox="0 0 61 61" fill="none"> <path d="M58.0008 37.0827L40.9788 32.8382C40.1438 32.6299 39.2777 32.5747 38.4229 32.6755L22.6992 34.5258L6.55253 20.2732C5.85357 19.6563 4.95332 19.316 4.02103 19.3165H3.82685C1.71333 19.3165 0 21.0297 0 23.1433C0 24.232 0.463726 25.2691 1.27502 25.9951L17.6433 40.6351C18.1457 41.0826 18.7092 41.4564 19.3168 41.7453V45.6584C19.3122 47.9504 21.1666 49.8121 23.4586 49.8166C24.1634 49.818 24.8569 49.6398 25.4737 49.2991L32.5334 50.6564V53.8831H9.15011C6.34411 53.8864 4.07009 56.1604 4.06678 58.9664C4.06678 59.5279 4.522 59.9831 5.08345 59.9831H55.9167C56.4781 59.9831 56.9333 59.5279 56.9333 58.9664V54.6863C56.9468 51.3585 54.6415 48.4701 51.3935 47.7455L33.7758 43.7419H33.7635H33.7493L29.5088 42.893L30.1188 41.6811L39.5738 40.6858L56.056 45.0575H56.0702C56.3817 45.136 56.7017 45.1756 57.0228 45.1754C59.2126 45.1821 60.9933 43.4124 61 41.2226C61 41.2161 61 41.2098 61 41.2033V40.9328C61.002 39.1134 59.7655 37.526 58.0008 37.0827ZM32.5334 57.9498H6.27396C6.70643 56.7321 7.85793 55.918 9.15011 55.9164H32.5334V57.9498ZM34.5667 46.007L50.9431 49.729C52.9704 50.1821 54.5134 51.8303 54.8319 53.8831H36.6V55.9164H54.9V57.9498H34.5667V46.007ZM25.3751 46.6089C24.8498 47.6583 23.5734 48.0833 22.5239 47.5581C21.8047 47.198 21.3502 46.4627 21.3501 45.6583V42.3643C21.9389 42.4547 22.5365 42.4704 23.1292 42.4111L27.7154 41.9282L25.3751 46.6089ZM32.5334 45.5668V48.5863L27.1725 47.5544C27.1796 47.5422 27.1878 47.531 27.1949 47.5178L28.5664 44.7728L32.5334 45.5668ZM58.9667 41.2033C58.9663 42.2734 58.0984 43.1408 57.0283 43.1404C56.8722 43.1404 56.7168 43.1215 56.5653 43.0841L39.9103 38.6667C39.7911 38.6351 39.6671 38.6254 39.5443 38.6382L22.9178 40.3889C21.49 40.5407 20.0648 40.0804 18.9955 39.1222L2.62719 24.4822C1.88769 23.8233 1.82237 22.6897 2.4813 21.9502C2.82315 21.5665 3.31306 21.348 3.82685 21.3499H4.02103C4.45795 21.35 4.87973 21.5093 5.20748 21.7982L21.6937 36.3457C21.91 36.5378 22.1985 36.6278 22.4857 36.5927L38.6608 34.6905C39.2727 34.6173 39.893 34.6566 40.4908 34.8064L57.5098 39.0541C58.3678 39.2735 58.9678 40.0471 58.9667 40.9328V41.2033Z" fill="#C6A473"></path> <path d="M24.4005 43.7167H22.3672V45.75H24.4005V43.7167Z" fill="#C6A473"></path> <path d="M60.8213 3.32404C60.3603 1.9471 59.0714 1.01838 57.6194 1.01672H35.5832C33.8987 1.01672 32.5332 2.38223 32.5332 4.06672V24.4H34.5665V4.06672C34.5665 3.50526 35.0217 3.05005 35.5832 3.05005H57.6194C58.3628 3.04827 58.9669 3.6495 58.9686 4.39294C58.97 4.9746 58.5976 5.49145 58.0454 5.67406L48.8517 8.74337C47.6082 9.15805 46.7687 10.3209 46.7665 11.6317V13.3184C45.8211 13.5141 44.9513 13.9759 44.2594 14.6492C43.3694 13.2231 41.4918 12.7883 40.0657 13.6783C39.1728 14.2354 38.6312 15.2142 38.6332 16.2667V19.3167C38.6332 21.0012 39.9987 22.3667 41.6832 22.3667V20.3333C41.1217 20.3333 40.6665 19.8781 40.6665 19.3167V16.2667C40.6665 15.7052 41.1217 15.25 41.6832 15.25C42.2446 15.25 42.6998 15.7052 42.6998 16.2667V18.3C42.6998 21.1074 44.9758 23.3833 47.7832 23.3833C50.5906 23.3833 52.8665 21.1074 52.8665 18.3V16.2667C52.8665 15.7052 53.3217 15.25 53.8832 15.25C54.4446 15.25 54.8998 15.7052 54.8998 16.2667V19.3167C54.8998 19.8781 54.4446 20.3333 53.8832 20.3333V22.3667C55.5676 22.3667 56.9332 21.0012 56.9332 19.3167V16.2667C56.9359 14.5856 55.5754 13.2205 53.8943 13.2177C52.8423 13.2159 51.8639 13.7576 51.3069 14.6501C50.6152 13.9764 49.7453 13.5143 48.7998 13.3182V11.6307C48.8002 11.1933 49.0802 10.8052 49.4952 10.6669L58.6889 7.60268C60.4592 7.01009 61.414 5.09444 60.8213 3.32404ZM50.8332 18.3C50.8332 19.9845 49.4677 21.35 47.7832 21.35C46.0987 21.35 44.7332 19.9845 44.7332 18.3C44.7332 16.6155 46.0987 15.25 47.7832 15.25C49.4677 15.25 50.8332 16.6157 50.8332 18.3Z" fill="#C6A473"></path> <path d="M48.8009 17.2833H46.7676V19.3167H48.8009V17.2833Z" fill="#C6A473"></path> <path d="M36.5997 26.4332H30.4997V23.3832C30.4997 21.6988 29.1342 20.3333 27.4497 20.3333C25.7652 20.3333 24.3997 21.6988 24.3997 23.3832V24.3999H26.4331V23.3832C26.4331 22.8218 26.8883 22.3666 27.4497 22.3666C28.0112 22.3666 28.4664 22.8218 28.4664 23.3832V26.4332H20.3331C19.7716 26.4332 19.3164 26.8885 19.3164 27.4499V29.4832H21.3497V28.4666H35.583V31.5166H37.6164V27.4499C37.6164 26.8885 37.1612 26.4332 36.5997 26.4332Z" fill="#C6A473"></path> </svg> 